<global>
amp_veltrack=0
ampeg_release=0.50
xf_cccurve=gain
xfin_hicc1=127
xfin_locc1=0
xfout_hicc1=127
xfout_locc1=127

<group>
group_label=Group

<region>
hikey=b3
hivel=127
lokey=a#3
lovel=0
pitch_keycenter=b3
sample=Alto_overblown_sustain_FF_A3.opus

<region>
hikey=b4
hivel=127
lokey=a#4
lovel=0
pitch_keycenter=b4
sample=Alto_overblown_sustain_FF_A4.opus

<region>
hikey=b5
hivel=127
lokey=a#5
lovel=0
pitch_keycenter=b5
sample=Alto_overblown_sustain_FF_A5.opus

<region>
hikey=c#4
hivel=127
lokey=c4
lovel=0
pitch_keycenter=c#4
sample=Alto_overblown_sustain_FF_B3.opus

<region>
hikey=c#5
hivel=127
lokey=c5
lovel=0
pitch_keycenter=c#5
sample=Alto_overblown_sustain_FF_B4.opus

<region>
hikey=c#6
hivel=127
lokey=c6
lovel=0
pitch_keycenter=c#6
sample=Alto_overblown_sustain_FF_B5.opus

<region>
hikey=d#4
hivel=127
lokey=d4
lovel=0
pitch_keycenter=d#4
sample=Alto_overblown_sustain_FF_C#4.opus

<region>
hikey=d#5
hivel=127
lokey=d5
lovel=0
pitch_keycenter=d#5
sample=Alto_overblown_sustain_FF_C#5.opus

<region>
hikey=f4
hivel=127
lokey=e4
lovel=0
pitch_keycenter=f4
sample=Alto_overblown_sustain_FF_D#4.opus

<region>
hikey=f5
hivel=127
lokey=e5
lovel=0
pitch_keycenter=f5
sample=Alto_overblown_sustain_FF_D#5.opus

<region>
hivel=127
key=g3
lovel=0
sample=Alto_overblown_sustain_FF_F3.opus

<region>
hikey=g4
hivel=127
lokey=f#4
lovel=0
pitch_keycenter=g4
sample=Alto_overblown_sustain_FF_F4.opus

<region>
hikey=g5
hivel=127
lokey=f#5
lovel=0
pitch_keycenter=g5
sample=Alto_overblown_sustain_FF_F5.opus

<region>
hikey=a3
hivel=127
lokey=g#3
lovel=0
pitch_keycenter=a3
sample=Alto_overblown_sustain_FF_G3.opus

<region>
hikey=a4
hivel=127
lokey=g#4
lovel=0
pitch_keycenter=a4
sample=Alto_overblown_sustain_FF_G4.opus

<region>
hikey=a5
hivel=127
lokey=g#5
lovel=0
pitch_keycenter=a5
sample=Alto_overblown_sustain_FF_G5.opus

